<?xml version="1.0" encoding="UTF-8"?>
<svg version="1.1" xmlns="http://www.w3.org/2000/svg" width="64" height="64">
<path d="M0 0 C21.12 0 42.24 0 64 0 C64 21.12 64 42.24 64 64 C42.88 64 21.76 64 0 64 C0 42.88 0 21.76 0 0 Z " fill="#F8F8F8" transform="translate(0,0)"/>
<path d="M0 0 C1.65 0 3.3 0 5 0 C5.66 1.65 6.32 3.3 7 5 C6.34 5 5.68 5 5 5 C5 5.66 5 6.32 5 7 C6.093125 6.505 7.18625 6.01 8.3125 5.5 C12.03677855 3.98503924 14.07623552 4 18 4 C18.33 3.01 18.66 2.02 19 1 C19.99 2.98 20.98 4.96 22 7 C22.53625 6.67 23.0725 6.34 23.625 6 C26.70340819 4.70382813 28.67716638 4.60125997 32 5 C35.375 6.875 35.375 6.875 38 9 C38 9.66 38 10.32 38 11 C39.65 10.34 41.3 9.68 43 9 C43 9.66 43 10.32 43 11 C43.66 11.33 44.32 11.66 45 12 C44.30132812 12.13277344 43.60265625 12.26554687 42.8828125 12.40234375 C41.97273438 12.57894531 41.06265625 12.75554688 40.125 12.9375 C39.22007813 13.11152344 38.31515625 13.28554688 37.3828125 13.46484375 C35.00043683 13.89963701 35.00043683 13.89963701 33 15 C33 22.26 33 29.52 33 37 C35.31 36.67 37.62 36.34 40 36 C39.505 32.04 39.505 32.04 39 28 C41.64 27.34 44.28 26.68 47 26 C47 22.04 47 18.08 47 14 C49 15 49 15 50.125 17.625 C51.51375012 22.98160759 51.81077182 26.46232931 49.1875 31.4375 C48.465625 32.283125 47.74375 33.12875 47 34 C46.01 34 45.02 34 44 34 C44.185625 35.5778125 44.185625 35.5778125 44.375 37.1875 C44 41 44 41 41.25 43.8125 C37.04975727 46.63958645 34.00053997 48.16657667 29 49 C29 50.65 29 52.3 29 54 C28.34 53.01 27.68 52.02 27 51 C24.9554626 50.16550714 24.9554626 50.16550714 22.625 49.75 C21.85414062 49.57984375 21.08328125 49.4096875 20.2890625 49.234375 C17.8665915 48.98634043 16.27211393 49.13919913 14 50 C13.67 50.66 13.34 51.32 13 52 C8.32760855 49.86793788 4.40712181 47.97497544 1 44 C-0.65 44.66 -2.3 45.32 -4 46 C-3.319375 45.525625 -2.63875 45.05125 -1.9375 44.5625 C0.22802437 41.69841939 0.25866859 41.21450803 -0.0625 37.8125 C-0.70831409 33.69288593 -1.94034063 29.91171099 -3.4765625 26.04296875 C-4.08573324 23.66538444 -3.77501519 22.29921174 -3 20 C-3.99 19.34 -4.98 18.68 -6 18 C-5.835 17.38125 -5.67 16.7625 -5.5 16.125 C-4.87822101 13.48243927 -4.77493265 12.4501347 -6 10 C-3.69 10.66 -1.38 11.32 1 12 C1.99 10.68 2.98 9.36 4 8 C2.35 8.33 0.7 8.66 -1 9 C-1.80967438 6.08517222 -2.21845993 4.53886783 -1.0625 1.6875 C-0.711875 1.130625 -0.36125 0.57375 0 0 Z " fill="#14B0DC" transform="translate(8,5)"/>
<path d="M0 0 C2.64 0 5.28 0 8 0 C8 21.12 8 42.24 8 64 C-13.12 64 -34.24 64 -56 64 C-56.020625 56.12125 -56.04125 48.2425 -56.0625 40.125 C-56.071604 37.63727051 -56.08070801 35.14954102 -56.09008789 32.58642578 C-56.09300749 30.6227219 -56.09555594 28.65901742 -56.09765625 26.6953125 C-56.10277222 25.66913818 -56.10788818 24.64296387 -56.11315918 23.58569336 C-56.11334045 22.12425903 -56.11334045 22.12425903 -56.11352539 20.63330078 C-56.115746 19.78502716 -56.11796661 18.93675354 -56.12025452 18.06277466 C-56 16 -56 16 -55 14 C-53 15 -53 15 -51 18 C-51.66 18.66 -52.32 19.32 -53 20 C-53 20.99 -53 21.98 -53 23 C-52.01 23.66 -51.02 24.32 -50 25 C-50.20625 25.53625 -50.4125 26.0725 -50.625 26.625 C-51.13508286 29.85552477 -50.11852048 31.95513868 -49 35 C-48.61781233 36.65614657 -48.28604898 38.32457024 -48 40 C-47.6596875 41.8253125 -47.6596875 41.8253125 -47.3125 43.6875 C-47.209375 44.780625 -47.10625 45.87375 -47 47 C-47.66 47.66 -48.32 48.32 -49 49 C-47.515 48.505 -47.515 48.505 -46 48 C-44.5 49.375 -44.5 49.375 -43 51 C-43 51.66 -43 52.32 -43 53 C-38.57394994 54.44524884 -38.57394994 54.44524884 -34 55 C-33.09314453 54.47986328 -33.09314453 54.47986328 -32.16796875 53.94921875 C-29.45022214 52.75928645 -28.15365182 53.0846016 -25.3125 53.8125 C-24.13107422 54.10060547 -24.13107422 54.10060547 -22.92578125 54.39453125 C-21 55 -21 55 -20 56 C-19.505 55.01 -19.505 55.01 -19 54 C-17.6696875 54.2784375 -17.6696875 54.2784375 -16.3125 54.5625 C-13.14821189 54.98042484 -11.05160358 54.80777742 -8 54 C-6 57 -6 57 -6 60 C-4.68 60.33 -3.36 60.66 -2 61 C-2 57.88742431 -2.17361624 55.89234315 -3 53 C-2.01 52.34 -1.02 51.68 0 51 C0.72382467 48.94074861 0.72382467 48.94074861 1 47 C0.01 46.505 0.01 46.505 -1 46 C-0.01 45.34 0.98 44.68 2 44 C2.69159401 42.15274948 2.69159401 42.15274948 3 40 C3.185625 39.278125 3.37125 38.55625 3.5625 37.8125 C4.64810273 30.83362529 4.46829553 25.33860908 1 19 C-0.57432162 16.88216259 -2.22801522 14.9635507 -4 13 C-3.01 11.68 -2.02 10.36 -1 9 C-0.360625 9.33 0.27875 9.66 0.9375 10 C2.76794567 11.07271225 2.76794567 11.07271225 4 11 C4.36630156 7.06225823 4.30233203 5.43460229 2 2.125 C1.34 1.42375 0.68 0.7225 0 0 Z " fill="#F5F5F5" transform="translate(56,0)"/>
<path d="M0 0 C1.65 0 3.3 0 5 0 C5.66 1.65 6.32 3.3 7 5 C6.34 5 5.68 5 5 5 C5 5.66 5 6.32 5 7 C6.093125 6.505 7.18625 6.01 8.3125 5.5 C12 4 12 4 15 4 C16.33981486 3.6937566 17.67511887 3.36548445 19 3 C19 4.32 19 5.64 19 7 C18.030625 7.4125 17.06125 7.825 16.0625 8.25 C15.051875 8.8275 14.04125 9.405 13 10 C12.8865625 10.6496875 12.773125 11.299375 12.65625 11.96875 C12.4396875 12.6390625 12.223125 13.309375 12 14 C9.49609375 15.265625 9.49609375 15.265625 6.4375 16.25 C4.91962891 16.75273438 4.91962891 16.75273438 3.37109375 17.265625 C2.58863281 17.50796875 1.80617188 17.7503125 1 18 C1 19.65 1 21.3 1 23 C3.31 22.34 5.62 21.68 8 21 C6.93908744 23.77469439 5.81595382 26.33269887 4.375 28.9375 C2.89194427 32.24066957 2.74458722 34.42422103 3 38 C4.73017508 37.54548816 6.45909877 37.08621143 8.1875 36.625 C9.15042969 36.36976562 10.11335938 36.11453125 11.10546875 35.8515625 C16.5451463 34.29658707 16.5451463 34.29658707 21 31 C20.67 32.65 20.34 34.3 20 36 C18.02 36.495 18.02 36.495 16 37 C16.33 37.66 16.66 38.32 17 39 C19.52733235 39.65555119 19.52733235 39.65555119 22 40 C20.68 40.66 19.36 41.32 18 42 C19.36483958 44.20808542 19.36483958 44.20808542 22 46 C25.3580469 46.35791096 28.63536357 46.23115823 32 46 C32 45.34 32 44.68 32 44 C33.093125 43.731875 34.18625 43.46375 35.3125 43.1875 C39.4028906 41.99094871 39.4028906 41.99094871 42 39 C42.165 38.01 42.33 37.02 42.5 36 C43.02829291 32.83024253 43.53100137 31.9322598 46 30 C44.35 30.33 42.7 30.66 41 31 C41 33.31 41 35.62 41 38 C36.545 38.495 36.545 38.495 32 39 C32 38.34 32 37.68 32 37 C30.88625 37.495 30.88625 37.495 29.75 38 C27 39 27 39 23 39 C23 38.34 23 37.68 23 37 C26.465 36.505 26.465 36.505 30 36 C29.855625 34.77023438 29.71125 33.54046875 29.5625 32.2734375 C29.37482274 30.64064536 29.18733263 29.00783171 29 27.375 C28.90460937 26.56675781 28.80921875 25.75851563 28.7109375 24.92578125 C28.21746383 20.59026261 27.88679283 16.37262689 28 12 C28.474375 12.495 28.94875 12.99 29.4375 13.5 C30.75923698 15.11542197 30.75923698 15.11542197 32 15 C32.33 22.26 32.66 29.52 33 37 C35.31 36.67 37.62 36.34 40 36 C39.505 32.04 39.505 32.04 39 28 C41.64 27.34 44.28 26.68 47 26 C47 22.04 47 18.08 47 14 C49 15 49 15 50.125 17.625 C51.51375012 22.98160759 51.81077182 26.46232931 49.1875 31.4375 C48.465625 32.283125 47.74375 33.12875 47 34 C46.01 34 45.02 34 44 34 C44.185625 35.5778125 44.185625 35.5778125 44.375 37.1875 C44 41 44 41 41.25 43.8125 C37.04975727 46.63958645 34.00053997 48.16657667 29 49 C29 50.65 29 52.3 29 54 C28.34 53.01 27.68 52.02 27 51 C24.9554626 50.16550714 24.9554626 50.16550714 22.625 49.75 C21.85414062 49.57984375 21.08328125 49.4096875 20.2890625 49.234375 C17.8665915 48.98634043 16.27211393 49.13919913 14 50 C13.67 50.66 13.34 51.32 13 52 C8.32760855 49.86793788 4.40712181 47.97497544 1 44 C-0.65 44.66 -2.3 45.32 -4 46 C-3.319375 45.525625 -2.63875 45.05125 -1.9375 44.5625 C0.22802437 41.69841939 0.25866859 41.21450803 -0.0625 37.8125 C-0.70831409 33.69288593 -1.94034063 29.91171099 -3.4765625 26.04296875 C-4.08573324 23.66538444 -3.77501519 22.29921174 -3 20 C-3.99 19.34 -4.98 18.68 -6 18 C-5.835 17.38125 -5.67 16.7625 -5.5 16.125 C-4.87822101 13.48243927 -4.77493265 12.4501347 -6 10 C-3.69 10.66 -1.38 11.32 1 12 C1.99 10.68 2.98 9.36 4 8 C2.35 8.33 0.7 8.66 -1 9 C-1.80967438 6.08517222 -2.21845993 4.53886783 -1.0625 1.6875 C-0.711875 1.130625 -0.36125 0.57375 0 0 Z " fill="#3A3F41" transform="translate(8,5)"/>
<path d="M0 0 C0.763125 0.350625 1.52625 0.70125 2.3125 1.0625 C5.04759379 2.32360884 5.04759379 2.32360884 8 1 C8.061875 1.53625 8.12375 2.0725 8.1875 2.625 C8.92678769 5.27075356 8.92678769 5.27075356 11.4375 7.8125 C16.17809191 13.32035535 16.22619565 19.48008059 16.265625 26.44921875 C15.98812573 29.11402788 15.34592669 30.70842222 14 33 C12.72489205 35.32519685 11.98917495 37.05818466 11.5 39.6875 C11.335 40.450625 11.17 41.21375 11 42 C10.01 42.495 10.01 42.495 9 43 C9.66 44.98 10.32 46.96 11 49 C10.34 49 9.68 49 9 49 C9 49.66 9 50.32 9 51 C7.125 50.8125 7.125 50.8125 5 50 C3.75 47.4375 3.75 47.4375 3 45 C0.03 45.495 0.03 45.495 -3 46 C-3 44.68 -3 43.36 -3 42 C-0.75 40.4375 -0.75 40.4375 2 39 C4.30723357 37.85302042 4.30723357 37.85302042 6 36 C6.165 34.824375 6.33 33.64875 6.5 32.4375 C6.665 31.303125 6.83 30.16875 7 29 C8.9375 27.8125 8.9375 27.8125 11 27 C13.54725256 23.56120904 13.29128484 20.15080897 13 16 C12.1025173 13.16621868 12.1025173 13.16621868 11 11 C11.12375 12.85625 11.12375 12.85625 11.25 14.75 C11.24442437 17.8946544 11.13412091 18.80130236 9.3125 21.5 C6.62023779 23.24633224 5.14839906 23.34982212 2 23 C2.33 25.64 2.66 28.28 3 31 C0.69 31.33 -1.62 31.66 -4 32 C-4.71645501 26.7161443 -5.17207887 21.45466388 -5.375 16.125 C-5.42398438 15.03445312 -5.47296875 13.94390625 -5.5234375 12.8203125 C-5 10 -5 10 -2.68359375 8.16015625 C0.22624184 6.90219239 2.8590504 6.3652267 6 6 C5.34 6 4.68 6 4 6 C3.01 6 2.02 6 1 6 C0.34 4.35 -0.32 2.7 -1 1 C-0.67 0.67 -0.34 0.34 0 0 Z " fill="#EAEBEB" transform="translate(45,10)"/>
<path d="M0 0 C2.64 0 5.28 0 8 0 C8 21.12 8 42.24 8 64 C3.38 64 -1.24 64 -6 64 C-5.67 63.34 -5.34 62.68 -5 62 C-4.01 62 -3.02 62 -2 62 C-0.9673198 59.21176345 -0.95490707 58.1322726 -1.9375 55.25 C-2.288125 54.5075 -2.63875 53.765 -3 53 C-2.01 52.34 -1.02 51.68 0 51 C0.72382467 48.94074861 0.72382467 48.94074861 1 47 C0.34 46.67 -0.32 46.34 -1 46 C-0.01 45.34 0.98 44.68 2 44 C2.69159401 42.15274948 2.69159401 42.15274948 3 40 C3.185625 39.278125 3.37125 38.55625 3.5625 37.8125 C4.64810273 30.83362529 4.46829553 25.33860908 1 19 C-0.57432162 16.88216259 -2.22801522 14.9635507 -4 13 C-3.01 11.68 -2.02 10.36 -1 9 C-0.360625 9.33 0.27875 9.66 0.9375 10 C2.76794567 11.07271225 2.76794567 11.07271225 4 11 C4.36630156 7.06225823 4.30233203 5.43460229 2 2.125 C1.34 1.42375 0.68 0.7225 0 0 Z " fill="#FBFBFB" transform="translate(56,0)"/>
<path d="M0 0 C0.474375 0.495 0.94875 0.99 1.4375 1.5 C2.75923698 3.11542197 2.75923698 3.11542197 4 3 C4.33 10.26 4.66 17.52 5 25 C7.31 24.67 9.62 24.34 12 24 C11.505 20.04 11.505 20.04 11 16 C13.64 15.34 16.28 14.68 19 14 C19 10.04 19 6.08 19 2 C21 3 21 3 22.125 5.625 C23.51375012 10.98160759 23.81077182 14.46232931 21.1875 19.4375 C20.465625 20.283125 19.74375 21.12875 19 22 C18.01 22 17.02 22 16 22 C16.12375 23.051875 16.2475 24.10375 16.375 25.1875 C16 29 16 29 13.25 31.8125 C9.04975727 34.63958645 6.00053997 36.16657667 1 37 C1 38.65 1 40.3 1 42 C0.34 41.01 -0.32 40.02 -1 39 C-3.0445374 38.16550714 -3.0445374 38.16550714 -5.375 37.75 C-6.14585938 37.57984375 -6.91671875 37.4096875 -7.7109375 37.234375 C-10.1334085 36.98634043 -11.72788607 37.13919913 -14 38 C-14.33 38.66 -14.66 39.32 -15 40 C-16.31823302 39.40844669 -17.62947051 38.80128537 -18.9375 38.1875 C-19.66839844 37.85105469 -20.39929688 37.51460937 -21.15234375 37.16796875 C-23 36 -23 36 -24 33 C-23.443125 33.33 -22.88625 33.66 -22.3125 34 C-19.69715478 35.1309601 -17.8193354 35.15662974 -15 35 C-13.57055055 32.64561267 -12.91338739 31.51967567 -13.375 28.75 C-13.58125 28.1725 -13.7875 27.595 -14 27 C-17.68266103 27.59950296 -21.34543185 28.24758891 -25 29 C-22.46468298 25.19702447 -20.89888453 25.16023666 -16.5625 24 C-11.09617795 22.62383521 -11.09617795 22.62383521 -7 19 C-7.33 20.65 -7.66 22.3 -8 24 C-9.32 24.33 -10.64 24.66 -12 25 C-11.67 25.66 -11.34 26.32 -11 27 C-8.47266765 27.65555119 -8.47266765 27.65555119 -6 28 C-7.98 28.99 -7.98 28.99 -10 30 C-8.63516042 32.20808542 -8.63516042 32.20808542 -6 34 C-2.6419531 34.35791096 0.63536357 34.23115823 4 34 C4 33.34 4 32.68 4 32 C5.093125 31.731875 6.18625 31.46375 7.3125 31.1875 C11.4028906 29.99094871 11.4028906 29.99094871 14 27 C14.165 26.01 14.33 25.02 14.5 24 C15.02829291 20.83024253 15.53100137 19.9322598 18 18 C16.35 18.33 14.7 18.66 13 19 C13 21.31 13 23.62 13 26 C10.03 26.33 7.06 26.66 4 27 C4 26.34 4 25.68 4 25 C3.2575 25.33 2.515 25.66 1.75 26 C-1 27 -1 27 -5 27 C-5 26.34 -5 25.68 -5 25 C-1.535 24.505 -1.535 24.505 2 24 C1.855625 22.77023438 1.71125 21.54046875 1.5625 20.2734375 C1.37482274 18.64064536 1.18733263 17.00783171 1 15.375 C0.90460937 14.56675781 0.80921875 13.75851563 0.7109375 12.92578125 C0.21746383 8.59026261 -0.11320717 4.37262689 0 0 Z " fill="#1C333A" transform="translate(36,17)"/>
<path d="M0 0 C1.20849609 0.27457031 1.20849609 0.27457031 2.44140625 0.5546875 C4.4375 1.125 4.4375 1.125 5.4375 2.125 C5.7675 1.465 6.0975 0.805 6.4375 0.125 C7.7678125 0.4034375 7.7678125 0.4034375 9.125 0.6875 C12.28928811 1.10542484 14.38589642 0.93277742 17.4375 0.125 C19.4375 3.125 19.4375 3.125 19.4375 6.125 C20.7575 6.785 22.0775 7.445 23.4375 8.125 C20.52994677 9.78119277 18.46566577 10.37215763 15.12792969 10.35205078 C13.8670755 10.35182419 13.8670755 10.35182419 12.58074951 10.35159302 C11.68269592 10.34127045 10.78464233 10.33094788 9.859375 10.3203125 C8.9328009 10.3174826 8.00622681 10.31465271 7.05157471 10.31173706 C4.09675091 10.30055611 1.14223195 10.27545527 -1.8125 10.25 C-3.81770395 10.23996751 -5.82291266 10.23084213 -7.828125 10.22265625 C-12.73970051 10.20062358 -17.65104859 10.16610795 -22.5625 10.125 C-21.2425 9.795 -19.9225 9.465 -18.5625 9.125 C-18.2325 7.145 -17.9025 5.165 -17.5625 3.125 C-15.19438533 2.36382028 -13.9190335 2.01695955 -11.5 2.75 C-10.860625 2.87375 -10.22125 2.9975 -9.5625 3.125 C-7.89583333 1.79166667 -7.89583333 1.79166667 -6.5625 0.125 C-3.95184904 -1.18032548 -2.8070219 -0.65782536 0 0 Z " fill="#FAFAFA" transform="translate(30.5625,53.875)"/>
<path d="M0 0 C0.8452045 5.40930877 -2.13023039 8.73768645 -5 13 C-5.33 13.66 -5.66 14.32 -6 15 C-2.04 14.505 -2.04 14.505 2 14 C2 15.65 2 17.3 2 19 C-3.29053218 21.07842336 -8.43203005 22.8277958 -14 24 C-15 23 -15 23 -15.375 20.5625 C-14.83468509 15.42950831 -12.47404394 11.47095083 -10 7 C-12.31 7.66 -14.62 8.32 -17 9 C-17 7.02 -17 5.04 -17 3 C-15.58521865 2.35004703 -14.16808513 1.70521278 -12.75 1.0625 C-11.96109375 0.70285156 -11.1721875 0.34320312 -10.359375 -0.02734375 C-6.08407372 -1.78984378 -4.08048087 -2.47743481 0 0 Z " fill="#F8F8F8" transform="translate(25,20)"/>
<path d="M0 0 C0 0.99 0 1.98 0 3 C-0.99 3.33 -1.98 3.66 -3 4 C-2.87625 4.886875 -2.7525 5.77375 -2.625 6.6875 C-3 10 -3 10 -5.6875 12.6875 C-6.78070789 13.47379802 -7.8845128 14.24564175 -9 15 C-9.7425 15.598125 -10.485 16.19625 -11.25 16.8125 C-15.47788309 18.63817679 -19.47596424 18.79486343 -24 18 C-27.35124453 15.60625391 -28.67243114 14.13389222 -29.8125 10.1875 C-29.874375 9.465625 -29.93625 8.74375 -30 8 C-29.38125 7.7525 -28.7625 7.505 -28.125 7.25 C-25.64931313 5.79371361 -25.04874998 4.62187494 -24 2 C-23.67 4.31 -23.34 6.62 -23 9 C-18.545 8.505 -18.545 8.505 -14 8 C-14 8.66 -14 9.32 -14 10 C-9.545 9.505 -9.545 9.505 -5 9 C-5 6.69 -5 4.38 -5 2 C-3.35 1.34 -1.7 0.68 0 0 Z " fill="#13B7E4" transform="translate(54,34)"/>
<path d="M0 0 C1.98 0 3.96 0 6 0 C6.33747548 2.87456792 6.67010463 5.74956059 7 8.625 C7.09539063 9.43324219 7.19078125 10.24148437 7.2890625 11.07421875 C7.78253617 15.40973739 8.11320717 19.62737311 8 24 C6.02 24 4.04 24 2 24 C1.46462128 20.9398596 0.9493113 17.87666284 0.4375 14.8125 C0.28603516 13.94818359 0.13457031 13.08386719 -0.02148438 12.19335938 C-1.32964778 4.25311176 -1.32964778 4.25311176 0 0 Z " fill="#F7F7F7" transform="translate(30,17)"/>
<path d="M0 0 C0.7425 0.185625 1.485 0.37125 2.25 0.5625 C4.99177639 0.9986917 6.39298201 0.75202442 9 0 C9.06058594 0.89460938 9.12117188 1.78921875 9.18359375 2.7109375 C9.67632992 9.82149948 10.23257818 16.91359422 11 24 C12.32 24.33 13.64 24.66 15 25 C13.02 25.33 11.04 25.66 9 26 C9 23.69 9 21.38 9 19 C8.34 19 7.68 19 7 19 C6.67 19.66 6.34 20.32 6 21 C6 19.68 6 18.36 6 17 C2.04 17.495 2.04 17.495 -2 18 C-0.36363636 12.46153846 -0.36363636 12.46153846 1.625 9.9375 C3.40923396 7.42335215 3.4647885 6.02112523 3 3 C1.60414215 1.18523997 1.60414215 1.18523997 0 0 Z " fill="#374C51" transform="translate(21,17)"/>
<path d="M0 0 C1.65 0 3.3 0 5 0 C5.66 1.65 6.32 3.3 7 5 C6.34 5 5.68 5 5 5 C5 5.66 5 6.32 5 7 C6.093125 6.505 7.18625 6.01 8.3125 5.5 C12 4 12 4 15 4 C16.33981486 3.6937566 17.67511887 3.36548445 19 3 C19 4.32 19 5.64 19 7 C15.06619047 9.06056689 11.23617891 10.67619409 7 12 C5.88625 12.37125 4.7725 12.7425 3.625 13.125 C2.75875 13.41375 1.8925 13.7025 1 14 C1.33 13.38125 1.66 12.7625 2 12.125 C3.14193235 10.08981656 3.14193235 10.08981656 3 8 C1.68 8.33 0.36 8.66 -1 9 C-1.80967438 6.08517222 -2.21845993 4.53886783 -1.0625 1.6875 C-0.711875 1.130625 -0.36125 0.57375 0 0 Z " fill="#CACACA" transform="translate(8,5)"/>
<path d="M0 0 C0.9075 0.226875 1.815 0.45375 2.75 0.6875 C2.375 3.125 2.375 3.125 1.75 5.6875 C0.76 6.1825 0.76 6.1825 -0.25 6.6875 C0.41 8.6675 1.07 10.6475 1.75 12.6875 C1.09 12.6875 0.43 12.6875 -0.25 12.6875 C-0.25 13.3475 -0.25 14.0075 -0.25 14.6875 C-2.125 14.5 -2.125 14.5 -4.25 13.6875 C-5.5 11.125 -5.5 11.125 -6.25 8.6875 C-8.23 9.0175 -10.21 9.3475 -12.25 9.6875 C-12.25 8.3675 -12.25 7.0475 -12.25 5.6875 C-10 4.125 -10 4.125 -7.25 2.6875 C-6.610625 2.11 -5.97125 1.5325 -5.3125 0.9375 C-3.25 -0.3125 -3.25 -0.3125 0 0 Z " fill="#BCBCBC" transform="translate(54.25,46.3125)"/>
<path d="M0 0 C0.474375 0.495 0.94875 0.99 1.4375 1.5 C2.75923698 3.11542197 2.75923698 3.11542197 4 3 C4.33 10.26 4.66 17.52 5 25 C8.465 24.505 8.465 24.505 12 24 C12.33 23.01 12.66 22.02 13 21 C13 22.65 13 24.3 13 26 C10.03 26.33 7.06 26.66 4 27 C4 26.34 4 25.68 4 25 C3.2575 25.33 2.515 25.66 1.75 26 C-1 27 -1 27 -5 27 C-5 26.34 -5 25.68 -5 25 C-1.535 24.505 -1.535 24.505 2 24 C1.855625 22.77023438 1.71125 21.54046875 1.5625 20.2734375 C1.37482274 18.64064536 1.18733263 17.00783171 1 15.375 C0.90460937 14.56675781 0.80921875 13.75851563 0.7109375 12.92578125 C0.21746383 8.59026261 -0.11320717 4.37262689 0 0 Z " fill="#0A191E" transform="translate(36,17)"/>
<path d="M0 0 C0.928125 0.33 1.85625 0.66 2.8125 1 C7.82623015 2.57293495 11.06103119 1.49100945 16 0 C18 2 18 2 18 4 C16.84371094 4.36351562 16.84371094 4.36351562 15.6640625 4.734375 C14.66117188 5.06953125 13.65828125 5.4046875 12.625 5.75 C11.62726562 6.07484375 10.62953125 6.3996875 9.6015625 6.734375 C6.70207827 8.1449349 6.04162718 9.01316544 5 12 C3.35 10.68 1.7 9.36 0 8 C0.165 7.38125 0.33 6.7625 0.5 6.125 C1.12177899 3.48243927 1.22506735 2.4501347 0 0 Z " fill="#989898" transform="translate(2,15)"/>
<path d="M0 0 C1.16095535 2.84961767 1.06567925 3.83945073 -0.125 6.75 C-2 9 -2 9 -4.375 9.625 C-8.01055009 8.75939283 -9.5835748 6.76162879 -12 4 C-8.66437635 0.13769893 -4.98576775 -1.84658065 0 0 Z " fill="#12AFDA" transform="translate(23,44)"/>
<path d="M0 0 C2 1 2 1 3.125 3.625 C4.51375012 8.98160759 4.81077182 12.46232931 2.1875 17.4375 C1.465625 18.283125 0.74375 19.12875 0 20 C-0.99 20 -1.98 20 -3 20 C-3.33 20.66 -3.66 21.32 -4 22 C-4 19 -4 19 -2.5 17.3125 C-2.005 16.879375 -1.51 16.44625 -1 16 C-2.65 16.33 -4.3 16.66 -6 17 C-6 17.66 -6 18.32 -6 19 C-6.66 19 -7.32 19 -8 19 C-8 17.35 -8 15.7 -8 14 C-5.36 13.34 -2.72 12.68 0 12 C0 8.04 0 4.08 0 0 Z " fill="#2E464D" transform="translate(55,19)"/>
<path d="M0 0 C2.7839183 1.39195915 2.97898997 3.15575779 4 6 C4.804375 5.505 4.804375 5.505 5.625 5 C8.70340819 3.70382813 10.67716638 3.60125997 14 4 C17.375 5.875 17.375 5.875 20 8 C20 8.66 20 9.32 20 10 C21.65 9.34 23.3 8.68 25 8 C25 8.66 25 9.32 25 10 C25.66 10.33 26.32 10.66 27 11 C23.04 11.66 19.08 12.32 15 13 C15.33 12.34 15.66 11.68 16 11 C16.66 11 17.32 11 18 11 C16.27502636 8.70003515 14.95364066 7.18228544 12.05859375 6.62890625 C8.85563567 6.52862948 6.60947186 6.5428961 4 8.5 C3.67 8.995 3.34 9.49 3 10 C3 9.34 3 8.68 3 8 C0.03 8.66 -2.94 9.32 -6 10 C-4 7 -4 7 -1.375 6.3125 C-0.59125 6.209375 0.1925 6.10625 1 6 C0.67 4.02 0.34 2.04 0 0 Z " fill="#3A484C" transform="translate(26,6)"/>
<path d="M0 0 C2.9375 0.25 2.9375 0.25 6 1 C8.29013653 4.4352048 8.17842973 5.985331 8 10 C6.02 10.99 6.02 10.99 4 12 C4 11.01 4 10.02 4 9 C2.68 9.33 1.36 9.66 0 10 C-0.19412181 8.52168779 -0.38012131 7.04230684 -0.5625 5.5625 C-0.66691406 4.73878906 -0.77132812 3.91507812 -0.87890625 3.06640625 C-0.91886719 2.38449219 -0.95882812 1.70257812 -1 1 C-0.67 0.67 -0.34 0.34 0 0 Z " fill="#555555" transform="translate(53,1)"/>
<path d="M0 0 C0.33 0 0.66 0 1 0 C1.375 2.1875 1.375 2.1875 1 5 C-3.65126407 9.54555353 -7.64926388 11.94154398 -14 13 C-14 14.65 -14 16.3 -14 18 C-14.66 17.01 -15.32 16.02 -16 15 C-18.30144109 13.92863949 -20.6340213 12.92010283 -23 12 C-23 11.67 -23 11.34 -23 11 C-17.06 10.505 -17.06 10.505 -11 10 C-11 9.34 -11 8.68 -11 8 C-9.906875 7.731875 -8.81375 7.46375 -7.6875 7.1875 C-3.66943394 5.92891323 -3.66943394 5.92891323 -1 3 C-0.67 2.01 -0.34 1.02 0 0 Z " fill="#29464E" transform="translate(51,41)"/>
<path d="M0 0 C2 1 2 1 2.75 3.1875 C3.05194616 6.58439429 2.24302818 8.85586991 1 12 C-0.65614657 12.38218767 -2.32457024 12.71395102 -4 13 C-5 12 -5 12 -5.0625 8.4375 C-5.041875 7.303125 -5.02125 6.16875 -5 5 C-4.360625 4.731875 -3.72125 4.46375 -3.0625 4.1875 C-0.66868314 3.11332248 -0.66868314 3.11332248 0 0 Z " fill="#E2E2E2" transform="translate(57,34)"/>
<path d="M0 0 C1.65 0 3.3 0 5 0 C5.66 1.65 6.32 3.3 7 5 C6.34 5 5.68 5 5 5 C5 5.66 5 6.32 5 7 C5.99 7.33 6.98 7.66 8 8 C6.68 8 5.36 8 4 8 C2.32774271 8.30404678 0.65919896 8.63128912 -1 9 C-1.80967438 6.08517222 -2.21845993 4.53886783 -1.0625 1.6875 C-0.711875 1.130625 -0.36125 0.57375 0 0 Z " fill="#878749" transform="translate(8,5)"/>
<path d="M0 0 C4.02782511 0.29835742 7.59788032 0.73192021 11 3 C11.99 4.485 11.99 4.485 13 6 C12.40832031 5.90460937 11.81664062 5.80921875 11.20703125 5.7109375 C6.55619775 5.05845515 3.27685626 4.65462721 -1 7 C-1.625 4.625 -1.625 4.625 -2 2 C-1.34 1.34 -0.68 0.68 0 0 Z " fill="#C9C9C9" transform="translate(30,6)"/>
<path d="M0 0 C0.33 0 0.66 0 1 0 C1.33 2.31 1.66 4.62 2 7 C4.64 6.67 7.28 6.34 10 6 C10 6.66 10 7.32 10 8 C4.38963576 9.62077189 0.53754923 10.55579195 -5 8 C-5 7.34 -5 6.68 -5 6 C-4.360625 5.7525 -3.72125 5.505 -3.0625 5.25 C-0.81258459 4.18437567 -0.81258459 4.18437567 -0.25 1.875 C-0.1675 1.25625 -0.085 0.6375 0 0 Z " fill="#109CC4" transform="translate(29,36)"/>
<path d="M0 0 C0.99 0.66 1.98 1.32 3 2 C6.65670531 1.19351312 6.65670531 1.19351312 10 0 C8.92598892 2.91517292 8.22189824 4.77810176 6 7 C6 6.34 6 5.68 6 5 C4.35 5 2.7 5 1 5 C0.67 6.32 0.34 7.64 0 9 C-0.66 6.69 -1.32 4.38 -2 2 C-1.34 1.34 -0.68 0.68 0 0 Z " fill="#2E4045" transform="translate(6,26)"/>
<path d="M0 0 C0 1.32 0 2.64 0 4 C-3.76667915 3.48636193 -6.64120164 2.73730949 -10 1 C-10.99 1 -11.98 1 -13 1 C-9.08906687 -3.42105484 -5.00524738 -1.48660125 0 0 Z " fill="#C4C4C4" transform="translate(35,55)"/>
<path d="M0 0 C0.33 1.32 0.66 2.64 1 4 C-1.32694535 5.01803859 -3.65773869 6.01818746 -6 7 C-7.05960938 7.44666016 -7.05960938 7.44666016 -8.140625 7.90234375 C-13.65050378 10.11649874 -13.65050378 10.11649874 -17 9 C-12.96077232 6.17254062 -8.92434162 5.03191813 -4.20703125 3.84375 C-1.6571374 3.11307626 -1.6571374 3.11307626 0 0 Z " fill="#121718" transform="translate(28,36)"/>
<path d="M0 0 C1.3303125 0.2784375 1.3303125 0.2784375 2.6875 0.5625 C5.85178811 0.98042484 7.94839642 0.80777742 11 0 C8.43535345 2.83943011 6.81032572 4.42267792 3 5 C2.0925 5.185625 1.185 5.37125 0.25 5.5625 C-0.4925 5.706875 -1.235 5.85125 -2 6 C-1.34 4.02 -0.68 2.04 0 0 Z " fill="#E3E3E3" transform="translate(37,54)"/>
<path d="M0 0 C3.125 0.375 3.125 0.375 6 1 C5.67 2.65 5.34 4.3 5 6 C3.68 6.33 2.36 6.66 1 7 C0.87625 6.360625 0.7525 5.72125 0.625 5.0625 C0.315625 4.0415625 0.315625 4.0415625 0 3 C-0.66 2.67 -1.32 2.34 -2 2 C-1.34 1.34 -0.68 0.68 0 0 Z " fill="#949494" transform="translate(51,46)"/>
<path d="M0 0 C1.875 0.25 1.875 0.25 4 1 C5.64519298 3.19359065 6.01356546 4.51164351 5.9375 7.25 C4.59766555 11.18018105 2.59126931 14.7467865 0 18 C-0.66 18 -1.32 18 -2 18 C-0.36363636 12.46153846 -0.36363636 12.46153846 1.625 9.9375 C3.40923396 7.42335215 3.4647885 6.02112523 3 3 C1.60414215 1.18523997 1.60414215 1.18523997 0 0 Z " fill="#112328" transform="translate(21,17)"/>
<path d="M0 0 C2.625 0.375 2.625 0.375 5 1 C4.67 2.98 4.34 4.96 4 7 C2.35 6.67 0.7 6.34 -1 6 C-1.625 4.125 -1.625 4.125 -2 2 C-1.34 1.34 -0.68 0.68 0 0 Z " fill="#8E8E8E" transform="translate(8,56)"/>
<path d="M0 0 C2.29013653 3.4352048 2.17842973 4.985331 2 9 C1.67 8.34 1.34 7.68 1 7 C-0.98 7 -2.96 7 -5 7 C-3.75023244 3.34683329 -3.32901247 2.21934164 0 0 Z " fill="#12B1DE" transform="translate(27,26)"/>
<path d="M0 0 C0.763125 0.350625 1.52625 0.70125 2.3125 1.0625 C5.04759379 2.32360884 5.04759379 2.32360884 8 1 C9 5 9 5 10 9 C9.34 8.67 8.68 8.34 8 8 C8 7.34 8 6.68 8 6 C6.68 6 5.36 6 4 6 C3.01 6 2.02 6 1 6 C0.34 4.35 -0.32 2.7 -1 1 C-0.67 0.67 -0.34 0.34 0 0 Z " fill="#BEBEBE" transform="translate(45,10)"/>
<path d="M0 0 C0.66 0 1.32 0 2 0 C2.33 0.66 2.66 1.32 3 2 C5.52733235 2.65555119 5.52733235 2.65555119 8 3 C6.02 3.99 6.02 3.99 4 5 C5.32 6.65 6.64 8.3 8 10 C5.69 10.33 3.38 10.66 1 11 C1.03255208 9.01432292 1.06510417 7.02864583 1.09765625 5.04296875 C1.08263217 2.79694539 1.08263217 2.79694539 0 0 Z " fill="#15647B" transform="translate(22,42)"/>
<path d="M0 0 C3.18954538 4.25272717 3.3926517 5.10627034 3.3125 10.125 C3.30863281 11.17945313 3.30476563 12.23390625 3.30078125 13.3203125 C3 16 3 16 1 18 C0.67 12.06 0.34 6.12 0 0 Z " fill="#234852" transform="translate(36,17)"/>
<path d="M0 0 C0.58265625 0.22558594 1.1653125 0.45117188 1.765625 0.68359375 C1.765625 1.67359375 1.765625 2.66359375 1.765625 3.68359375 C0.31057142 4.21352067 -1.14855627 4.73227265 -2.609375 5.24609375 C-3.82753906 5.68115234 -3.82753906 5.68115234 -5.0703125 6.125 C-7.234375 6.68359375 -7.234375 6.68359375 -9.234375 5.68359375 C-8.16544282 4.64769037 -7.07859012 3.63025433 -5.984375 2.62109375 C-5.38109375 2.05261719 -4.7778125 1.48414062 -4.15625 0.8984375 C-2.234375 -0.31640625 -2.234375 -0.31640625 0 0 Z " fill="#3F6B78" transform="translate(18.234375,15.31640625)"/>
<path d="M0 0 C0.66 0.33 1.32 0.66 2 1 C2.25 8.625 2.25 8.625 0 12 C-2.32590854 8.36576791 -2.16265833 5.22911669 -2 1 C-1.34 0.67 -0.68 0.34 0 0 Z " fill="#19667C" transform="translate(28,17)"/>
<path d="M0 0 C-0.3125 1.9375 -0.3125 1.9375 -1 4 C-4 5 -4 5 -6.1875 4.0625 C-6.785625 3.711875 -7.38375 3.36125 -8 3 C-8.33 3.66 -8.66 4.32 -9 5 C-9 4.01 -9 3.02 -9 2 C-5.5647952 -0.29013653 -4.014669 -0.17842973 0 0 Z " fill="#18B9E5" transform="translate(29,14)"/>
<path d="M0 0 C1.65 1.65 3.3 3.3 5 5 C4.67 5.66 4.34 6.32 4 7 C4.66 7 5.32 7 6 7 C6.33 5.68 6.66 4.36 7 3 C7.66 4.32 8.32 5.64 9 7 C8.34 7 7.68 7 7 7 C7 7.66 7 8.32 7 9 C5.1875 8.875 5.1875 8.875 3 8 C0 2.96428571 0 2.96428571 0 0 Z " fill="#43432A" transform="translate(47,52)"/>
<path d="M0 0 C0.33 0.66 0.66 1.32 1 2 C2.65 2 4.3 2 6 2 C6 3.32 6 4.64 6 6 C5.01 6.33 4.02 6.66 3 7 C1.5 5.75 1.5 5.75 0 4 C0 2.68 0 1.36 0 0 Z " fill="#17A3CA" transform="translate(6,29)"/>
<path d="M0 0 C0.928125 0.33 1.85625 0.66 2.8125 1 C5.92029291 2.14967004 5.92029291 2.14967004 9 2 C9.99 2.33 10.98 2.66 12 3 C10.25 4.5625 10.25 4.5625 8 6 C5.8125 5.875 5.8125 5.875 4 5 C3.67 4.01 3.34 3.02 3 2 C2.01 1.67 1.02 1.34 0 1 C0 0.67 0 0.34 0 0 Z " fill="#909090" transform="translate(2,15)"/>
<path d="M0 0 C0.66 0 1.32 0 2 0 C4.09350689 3.4019487 4.17942163 6.05272412 4 10 C3.34 10 2.68 10 2 10 C1.814375 9.1646875 1.814375 9.1646875 1.625 8.3125 C0.94023145 5.77885636 0.00866237 3.42078968 -1 1 C-0.67 0.67 -0.34 0.34 0 0 Z " fill="#E1E1AF" transform="translate(49,49)"/>
<path d="M0 0 C2.475 0.495 2.475 0.495 5 1 C4.67 2.32 4.34 3.64 4 5 C2.68 5.33 1.36 5.66 0 6 C0 4.02 0 2.04 0 0 Z " fill="#B9B9B9" transform="translate(52,39)"/>
<path d="M0 0 C1.32 0 2.64 0 4 0 C3.34 3.3 2.68 6.6 2 10 C0 8 0 8 -0.1953125 6.0546875 C-0.13020833 4.03645833 -0.06510417 2.01822917 0 0 Z " fill="#687174" transform="translate(7,35)"/>
<path d="M0 0 C3.3 0.33 6.6 0.66 10 1 C9.67 2.98 9.34 4.96 9 7 C8.34 6.01 7.68 5.02 7 4 C4.69855891 2.92863949 2.3659787 1.92010283 0 1 C0 0.67 0 0.34 0 0 Z " fill="#212121" transform="translate(28,52)"/>
<path d="M0 0 C0.33 0 0.66 0 1 0 C1.375 2.1875 1.375 2.1875 1 5 C-0.83961648 6.99022836 -2.79186148 8.38989899 -5 10 C-5.66 9.34 -6.32 8.68 -7 8 C-5.47005208 6.79557292 -3.94010417 5.59114583 -2.41015625 4.38671875 C-0.72844923 2.94316909 -0.72844923 2.94316909 0 0 Z " fill="#131A1C" transform="translate(51,41)"/>
<path d="M0 0 C1.9375 0.375 1.9375 0.375 4 1 C4.33 1.66 4.66 2.32 5 3 C4.67 3.99 4.34 4.98 4 6 C2.68 5.34 1.36 4.68 0 4 C0 2.68 0 1.36 0 0 Z " fill="#EEEEEE" transform="translate(54,2)"/>
<path d="M0 0 C2.125 0.9375 2.125 0.9375 4 2 C3.67 2.99 3.34 3.98 3 5 C1.02 4.34 -0.96 3.68 -3 3 C-2 1 -2 1 0 0 Z " fill="#E7E7E7" transform="translate(25,55)"/>
<path d="M0 0 C0.66 0.66 1.32 1.32 2 2 C-0.46278801 4.46278801 -2.70676982 4.99771255 -6 6 C-4.95125002 3.37812506 -4.35068687 2.20628639 -1.875 0.75 C-1.25625 0.5025 -0.6375 0.255 0 0 Z " fill="#D8D8D8" transform="translate(15,13)"/>
<path d="M0 0 C2.97 0.495 2.97 0.495 6 1 C6 1.99 6 2.98 6 4 C3.69 3.67 1.38 3.34 -1 3 C-0.67 2.01 -0.34 1.02 0 0 Z " fill="#C7C7C7" transform="translate(14,54)"/>
<path d="M0 0 C0.66 0.33 1.32 0.66 2 1 C2.625 3.5625 2.625 3.5625 3 6 C1.68 6 0.36 6 -1 6 C-1 3 -1 3 0 0 Z " fill="#D1D1D1" transform="translate(57,34)"/>
</svg>
